<svg width="24" height="16" viewBox="0 0 24 16" fill="none" xmlns="http://www.w3.org/2000/svg">
  <rect x="0" y="0" width="24" height="16" rx="2" ry="2" fill="white" />
  <rect x="0.25" y="0.25" width="23.5" height="15.5" rx="2" ry="2" fill="none" stroke="black" stroke-opacity="0.2" stroke-width="0.5"/>
  <path d="M8.04 7.7c-.09-1.07.88-1.59.92-1.61-.5-.74-1.26-.85-1.53-.86-.64-.06-1.25.37-1.58.37-.33 0-.82-.35-1.35-.34-.69.01-1.32.4-1.67 1.01-.72 1.26-.18 3.12.52 4.13.35.51.78 1.09 1.34 1.06.54-.02.75-.34 1.4-.34.65 0 .83.34 1.36.34.57.01.94-.53 1.3-1.04.41-.61.57-1.2.58-1.23-.01-.01-1.11-.43-1.12-1.7Zm-.96-3.4c.27-.32.46-.76.4-1.21-.38.02-.84.26-1.11.58-.25.29-.48.75-.41 1.18.43.03.85-.22 1.12-.55Z" fill="#000" />
  <path d="M13.65 10.86H12.2L11.87 12H11l1.63-6.54h.98L15.2 12h-.91l-.64-1.14Zm-.2-.66L12.85 8.5 12.2 10.2h1.25ZM16.67 9.3c-.07-.55-.5-.72-.97-.77v-.02c.39-.1.66-.37.66-.76 0-.67-.63-.98-1.56-.98h-1.45v4.04h1.49c1.03 0 1.61-.38 1.61-1.12Zm-2.1-2.07h.99c.47 0 .78.2.78.54s-.31.55-.8.55h-.97v-1.1Zm1.05 3.08h-1.05v-1.21h1.1c.53 0 .84.21.84.6s-.32.61-.89.61Zm4.1-3.15v.74h-2.56v1.08h2.32v.72h-2.32v1.8h-.84V7.17h3.4Z" fill="#000"/>
</svg>
